<svg xmlns="http://www.w3.org/2000/svg" width="18" height="18" viewBox="0 0 18 18">
    <g fill="none" fill-rule="evenodd">
        <g>
            <g>
                <g>
                    <g>
                        <g>
                            <g>
                                <path fill="#D8D8D8" fill-opacity="0" d="M0 0H18V18H0z" transform="translate(-494 -146) translate(391 110) translate(1) translate(76 1) translate(0 31) translate(26 4)"/>
                                <path fill="#FFF" fill-rule="nonzero" d="M9 4c-.552 0-1 .448-1 1v3H5c-.552 0-1 .448-1 1s.448 1 1 1h3v3c0 .552.448 1 1 1s1-.448 1-1v-3h3c.552 0 1-.448 1-1s-.448-1-1-1h-3V5c0-.552-.448-1-1-1z" transform="translate(-494 -146) translate(391 110) translate(1) translate(76 1) translate(0 31) translate(26 4)"/>
                            </g>
                        </g>
                    </g>
                </g>
            </g>
        </g>
    </g>
</svg>
